<?xml version="1.0" encoding="UTF-8"?>
<svg width="800px" height="600px" viewBox="0 0 800 600" version="1.1" xmlns="http://www.w3.org/2000/svg">
    <title>Education Hero Image</title>
    <g stroke="none" stroke-width="1" fill="none" fill-rule="evenodd">
        <!-- Background Circle -->
        <circle fill="#F3F4F6" cx="400" cy="300" r="250"/>
        
        <!-- Book Stack -->
        <g transform="translate(300, 200)">
            <!-- Book 1 -->
            <rect fill="#4F46E5" x="0" y="0" width="200" height="40" rx="4"/>
            <!-- Book 2 -->
            <rect fill="#3B82F6" x="10" y="40" width="180" height="40" rx="4"/>
            <!-- Book 3 -->
            <rect fill="#60A5FA" x="20" y="80" width="160" height="40" rx="4"/>
        </g>
        
        <!-- Graduation Cap -->
        <g transform="translate(350, 150)">
            <!-- Cap Base -->
            <rect fill="#1F2937" x="0" y="0" width="100" height="20" rx="2"/>
            <!-- Cap Top -->
            <polygon fill="#1F2937" points="50,0 0,30 100,30"/>
            <!-- Tassel -->
            <path d="M60,0 Q70,-10 80,0" stroke="#D1D5DB" stroke-width="2" fill="none"/>
        </g>
        
        <!-- Pencil -->
        <g transform="translate(500, 250) rotate(45)">
            <!-- Pencil Body -->
            <rect fill="#FCD34D" x="0" y="0" width="120" height="20" rx="2"/>
            <!-- Pencil Tip -->
            <polygon fill="#4B5563" points="120,10 100,0 100,20"/>
        </g>
        
        <!-- Decorative Elements -->
        <g transform="translate(200, 400)">
            <!-- Circle 1 -->
            <circle fill="#10B981" cx="20" cy="20" r="10"/>
            <!-- Circle 2 -->
            <circle fill="#EC4899" cx="60" cy="20" r="8"/>
            <!-- Circle 3 -->
            <circle fill="#F59E0B" cx="40" cy="50" r="12"/>
        </g>
        
        <g transform="translate(500, 400)">
            <!-- Circle 4 -->
            <circle fill="#8B5CF6" cx="20" cy="20" r="10"/>
            <!-- Circle 5 -->
            <circle fill="#EF4444" cx="60" cy="20" r="8"/>
            <!-- Circle 6 -->
            <circle fill="#6366F1" cx="40" cy="50" r="12"/>
        </g>
    </g>
</svg>
