<?xml version="1.0" encoding="UTF-8"?>
<svg width="600" height="400" viewBox="0 0 600 400" xmlns="http://www.w3.org/2000/svg">
    <!-- Background Elements -->
    <circle cx="300" cy="200" r="150" fill="#f8f9fa" opacity="0.5"/>
    <circle cx="300" cy="200" r="100" fill="#e9ecef" opacity="0.3"/>
    
    <!-- Graduation Cap -->
    <g transform="translate(250,150) scale(0.8)">
        <path d="M150 50L50 100L150 150L250 100L150 50Z" fill="#4a90e2"/>
        <path d="M80 120V160L150 190L220 160V120L150 150L80 120Z" fill="#357abd"/>
        <rect x="145" y="40" width="10" height="30" fill="#2c3e50"/>
    </g>
    
    <!-- Books Stack -->
    <g transform="translate(200,250)">
        <rect x="0" y="0" width="200" height="30" rx="5" fill="#e74c3c"/>
        <rect x="10" y="-20" width="190" height="30" rx="5" fill="#3498db"/>
        <rect x="20" y="-40" width="180" height="30" rx="5" fill="#2ecc71"/>
    </g>
    
    <!-- Decorative Elements -->
    <circle cx="150" cy="100" r="10" fill="#f1c40f"/>
    <circle cx="450" cy="300" r="15" fill="#e74c3c"/>
    <circle cx="500" cy="150" r="12" fill="#2ecc71"/>
    
    <!-- Abstract Lines -->
    <path d="M50,350 Q150,300 250,350" stroke="#3498db" fill="none" stroke-width="3"/>
    <path d="M350,50 Q450,100 550,50" stroke="#e74c3c" fill="none" stroke-width="3"/>
</svg>
